# xmcd
#
# Track frame offsets: 
#        150
#        13017
#        28747
#        39140
#        50570
#        68585
#        82152
#        89690
#        106875
#        121172
#        140420
#
# Disc length: 2015 seconds
#
# Revision: 2
# Processed by: cddbd v1.5.2PL0 Copyright (c) Steve Scherf et al.
# Submitted via: ExactAudioCopy v0.95a4
#
DISCID=8c07dd0b
DTITLE=Waylon Jennings, Willie Nelson, Jessi Colter, Tompall Glaser - 
DTITLE=Wanted! The Outlaws
DYEAR=1976
DGENRE=Country
TTITLE0=My Heroes Have Always Been Cowboys
TTITLE1=Honky Tonk Heroes
TTITLE2=I'm Looking for Blue Eyes
TTITLE3=You Mean to Say
TTITLE4=Suspicious Minds
TTITLE5=Good Hearted Woman
TTITLE6=Heaven or Hell
TTITLE7=Me and Paul
TTITLE8=Yesterday's Wine
TTITLE9=T for Texas
TTITLE10=Put Another Log on the Fire
EXTD=
EXTT0=
EXTT1=
EXTT2=
EXTT3=
EXTT4=
EXTT5=
EXTT6=
EXTT7=
EXTT8=
EXTT9=
EXTT10=
PLAYORDER=
